<svg width="40" height="40" viewBox="0 0 40 40" fill="none" xmlns="http://www.w3.org/2000/svg">
<path fill-rule="evenodd" clip-rule="evenodd" d="M36.5392 17.6116C36.3018 19.2561 35.7392 20.8192 34.9055 22.2565C34.968 22.6124 35 22.9721 35 23.3334C35 24.5881 34.6365 25.7889 33.9631 26.8799C33.6269 27.4245 33.5404 28.0626 33.5072 28.4842C33.469 28.9673 33.4819 29.496 33.5163 30.0039C33.555 30.5737 33.6251 31.1719 33.7053 31.7362C33.0548 31.5465 32.3497 31.356 31.6768 31.2042C31.1171 31.078 30.5444 30.9703 30.0257 30.9168C29.5732 30.87 28.9193 30.8338 28.3346 31.0229C27.0561 31.4361 25.6493 31.6667 24.1667 31.6667C22.4035 31.6667 20.7842 31.3537 19.3648 30.81C19.0234 30.8255 18.6795 30.8334 18.3333 30.8334C16.3256 30.8334 14.3933 30.5693 12.5854 30.0814C15.2137 33.1211 19.5465 35 24.1667 35C25.9716 35 27.7039 34.7229 29.3004 34.2137C29.3031 34.2138 29.3082 34.2137 29.3158 34.2136C29.3568 34.2127 29.4706 34.2105 29.6832 34.2325C30.0175 34.267 30.4474 34.344 30.9433 34.4559C31.9306 34.6786 33.04 35.0072 33.9046 35.2817C35.7382 35.8637 37.5148 34.2636 37.1871 32.403C37.0461 31.6021 36.8995 30.6247 36.842 29.7781C36.8131 29.3523 36.8099 29.0029 36.8302 28.7464C36.8385 28.6402 36.8493 28.5735 36.8561 28.5381C37.7938 26.9848 38.3334 25.2162 38.3334 23.3334C38.3334 21.2108 37.6741 19.2725 36.5392 17.6116Z" fill="#FF5A30"/>
<path fill-rule="evenodd" clip-rule="evenodd" d="M9.3284 9.49698C7.0818 11.215 5.83333 13.4702 5.83333 15.8334C5.83333 17.0118 6.1401 18.1467 6.71564 19.2021C6.93485 19.6041 6.99703 20.0187 7.01927 20.2994C7.04352 20.6055 7.03143 20.9201 7.00481 21.2142C6.95152 21.8032 6.82439 22.4705 6.67191 23.1278C6.49354 23.8966 6.26498 24.7165 6.03306 25.4864C6.91348 25.1664 7.87575 24.8384 8.78801 24.5723C9.52529 24.3572 10.2698 24.1706 10.9325 24.0658C11.5034 23.9755 12.3317 23.8868 13.0449 24.1335C14.6455 24.6873 16.436 25 18.3333 25C21.9119 25 25.0901 23.8889 27.3383 22.1698C29.5849 20.4518 30.8333 18.1966 30.8333 15.8334C30.8333 13.4702 29.5849 11.215 27.3383 9.49698C25.0901 7.77782 21.9119 6.66671 18.3333 6.66671C14.7547 6.66671 11.5765 7.77782 9.3284 9.49698ZM7.30357 6.84912C10.1828 4.64739 14.0879 3.33337 18.3333 3.33337C22.5787 3.33337 26.4839 4.64739 29.3631 6.84912C32.2438 9.05203 34.1667 12.2135 34.1667 15.8334C34.1667 19.4533 32.2438 22.6147 29.3631 24.8176C26.4839 27.0194 22.5787 28.3334 18.3333 28.3334C16.0949 28.3334 13.9568 27.9685 12.0154 27.3044C12.0135 27.3099 11.856 27.2945 11.4531 27.3582C10.9887 27.4316 10.3959 27.5755 9.72156 27.7722C8.37912 28.1639 6.87154 28.718 5.72322 29.1649C3.73384 29.9391 1.70725 28.0285 2.37752 25.9933C2.73277 24.9146 3.15175 23.5514 3.42481 22.3744C3.56237 21.7815 3.65164 21.283 3.68504 20.9139C3.69664 20.7857 3.69963 20.6923 3.69896 20.6292C2.93182 19.1632 2.5 17.5421 2.5 15.8334C2.5 12.2135 4.42284 9.05203 7.30357 6.84912ZM3.69347 20.5383C3.69363 20.5381 3.69444 20.5425 3.69542 20.5522C3.6938 20.5433 3.69331 20.5385 3.69347 20.5383Z" fill="#FF5A30"/>
</svg>
