<?xml version="1.0" encoding="utf-8"?><svg viewBox="0 0 330 330" xmlns="http://www.w3.org/2000/svg" xmlns:xlink="http://www.w3.org/1999/xlink"><style>:root>svg{display:none}:root>svg:target{display:block}</style><svg viewBox="0 0 24 24" id="arrow-up" xmlns="http://www.w3.org/2000/svg"><path fill-rule="evenodd" clip-rule="evenodd" d="M4.293 15.707a1 1 0 010-1.414l7-7a1 1 0 011.414 0l7 7a1 1 0 01-1.414 1.414L12 9.414l-6.293 6.293a1 1 0 01-1.414 0z"/></svg><svg viewBox="0 0 24 24" id="files" xmlns="http://www.w3.org/2000/svg"><g opacity=".7" fill-rule="evenodd" clip-rule="evenodd"><path d="M8 13.5a1 1 0 011-1h6a1 1 0 110 2H9a1 1 0 01-1-1zm0 3.75a1 1 0 011-1h3a1 1 0 110 2H9a1 1 0 01-1-1z"/><path d="M9.043 1.543a1 1 0 01.707-.293h6.75a4 4 0 014 4v13.5a4 4 0 01-4 4h-9a4 4 0 01-4-4V7.5a1 1 0 01.293-.707l5.25-5.25zM9.5 3.914V7.25H6.164L9.5 3.914zm-4 5.336v9.5a2 2 0 002 2h9a2 2 0 002-2V5.25a2 2 0 00-2-2h-5v5a1 1 0 01-1 1h-5z"/></g></svg><svg viewBox="0 0 330.002 330.002" id="scroll-to-top" xmlns="http://www.w3.org/2000/svg"><path d="M324.001 209.25L173.997 96.75a15 15 0 00-18 0L6.001 209.25c-6.627 4.971-7.971 14.373-3 21a14.975 14.975 0 0012.012 6.001c3.131 0 6.29-.978 8.988-3.001L164.998 127.5l141.003 105.75c6.629 4.972 16.03 3.627 21-3 4.971-6.627 3.627-16.029-3-21z"/></svg><svg viewBox="0 0 24 24" id="slider-left-long" xmlns="http://www.w3.org/2000/svg"><path fill-rule="evenodd" clip-rule="evenodd" d="M9.207 17.207a1 1 0 01-1.414 0l-4.5-4.5a1 1 0 010-1.414l4.5-4.5a1 1 0 011.414 1.414L6.414 11H20a1 1 0 110 2H6.414l2.793 2.793a1 1 0 010 1.414z"/></svg><svg viewBox="0 0 24 24" id="slider-right-long" xmlns="http://www.w3.org/2000/svg"><path fill-rule="evenodd" clip-rule="evenodd" d="M14.793 6.793a1 1 0 011.414 0l4.5 4.5a1 1 0 010 1.414l-4.5 4.5a1 1 0 01-1.414-1.414L17.586 13H4a1 1 0 110-2h13.586l-2.793-2.793a1 1 0 010-1.414z"/></svg></svg>